<svg width="280" height="294" viewBox="0 0 280 294" fill="none" xmlns="http://www.w3.org/2000/svg">
<circle cx="140" cy="154" r="140" fill="#5A82FA"/>
<path d="M185.544 58.6049V93.8231H200.029C205.282 93.8231 209.539 89.5659 209.539 84.3136V68.1143C209.539 62.862 205.282 58.6049 200.029 58.6049H185.544Z" fill="#857C93"/>
<path d="M102.557 58.6049V93.8231H88.0715C82.8192 93.8231 78.5621 89.5659 78.5621 84.3136V68.1143C78.5621 62.862 82.8192 58.6049 88.0715 58.6049H102.557Z" fill="#857C93"/>
<path d="M177.914 157.901C172.053 156.796 167.852 151.654 167.852 145.683V111.515H120.304V145.683C120.304 151.765 115.881 156.796 110.242 157.901L121.963 173.658H166.193C166.193 173.658 178.854 158.067 177.914 157.901Z" fill="#F7CF9C"/>
<path d="M250.672 252.886V232.595C250.672 197.377 225.682 167.134 191.072 160.445C187.7 159.781 96.9728 160.445 96.9728 160.445C62.418 167.079 37.428 197.377 37.428 232.595V252.886H250.672Z" fill="#F9AF19"/>
<path d="M187.589 156.63H65.7903C58.2712 156.63 52.3002 162.933 52.6872 170.452L57.2761 255.263H196.048L200.637 170.452C201.079 162.933 195.108 156.63 187.589 156.63Z" fill="#E9E8EA"/>
<path d="M222.31 156.63H185.101C192.62 156.63 198.591 162.933 198.204 170.452L193.616 255.263H230.824L235.413 170.452C235.8 162.933 229.829 156.63 222.31 156.63Z" fill="#D5D2DB"/>
<path d="M218.108 257.585V250.563L216.615 248.407H43.178C38.0915 248.407 34.0002 252.499 34.0002 257.585C34.0002 262.671 38.0915 266.763 43.178 266.763H208.93C214.017 266.818 218.108 262.671 218.108 257.585Z" fill="#5D526D"/>
<path d="M244.922 248.407H216.615V257.585C216.615 262.671 212.524 266.763 207.437 266.763H244.922C250.009 266.763 254.1 262.671 254.1 257.585C254.1 252.554 250.009 248.407 244.922 248.407Z" fill="#857C93"/>
<path d="M155.522 248.407C155.522 240.888 158.342 233.645 163.373 228.061C163.428 228.006 163.428 227.951 163.483 227.951C167.575 223.362 170.118 217.28 170.118 210.591C170.118 200.86 164.81 192.401 156.904 187.923C155.411 187.093 153.532 188.144 153.532 189.858V209.264C153.532 212.526 150.878 215.124 147.671 215.124H140.428C137.166 215.124 134.568 212.47 134.568 209.264V189.858C134.568 188.144 132.688 187.093 131.195 187.923C123.289 192.401 117.982 200.86 117.982 210.591C117.982 217.28 120.47 223.362 124.616 227.951L124.727 228.061C129.758 233.645 132.578 240.888 132.578 248.407H155.522Z" fill="#857C93"/>
<path d="M150.878 126.664C160.332 118.315 165.584 106.097 165.805 93.4361L165.64 32.1774C165.584 24.603 163.87 17.4156 160.498 11.0022C155.245 9.06717 149.551 7.96142 143.746 7.90613C119.309 8.29314 97.1935 26.9804 97.3041 53.9054L97.3593 62.9173L97.5252 93.2149C97.8569 105.599 103.054 117.486 112.342 125.558C117.871 130.313 125.003 134.625 133.904 136.616C140.705 134.294 146.344 130.645 150.878 126.664Z" fill="#F7CF9C"/>
<path d="M190.575 53.5185C190.464 32.1222 176.366 15.9782 158.231 10.2283C162.101 16.7522 164.368 24.4925 164.424 33.0068L164.589 92.828C164.368 105.212 159.282 117.155 150.049 125.337C145.128 129.705 138.825 133.686 131.085 135.952C135.121 137.113 139.544 137.832 144.354 137.887C158.231 137.666 168.736 131.916 176.2 125.392C185.488 117.265 190.575 105.323 190.74 92.8833L190.575 53.5185Z" fill="#EAB883"/>
<path d="M142.419 38.3143H145.681C150.049 38.3143 154.417 37.5403 158.563 36.1581C160.83 35.4394 163.207 35.0523 165.64 34.9971V32.1221C165.585 23.7184 163.428 15.8123 159.337 8.79073C157.734 6.08164 155.854 3.53841 153.753 1.27162L150.049 0H122.847C102.723 0 86.4128 16.3098 86.4128 36.4345V60.5399C86.4128 64.0783 88.6796 67.2297 91.9968 68.3908L100.953 71.5422C104.105 72.6479 107.367 70.3258 107.367 66.9533V49.98C107.311 41.7421 113.946 34.9971 122.073 34.9418H122.239C124.727 34.9418 127.215 35.3288 129.592 36.1028C133.684 37.5403 138.051 38.3696 142.419 38.3143Z" fill="#857C93"/>
<path d="M187.534 19.1295H187.036C184.382 19.1295 182.226 16.9733 182.226 14.3195C182.226 6.46867 175.868 0.110596 168.017 0.110596H149.993C158.674 8.1273 164.313 19.5166 164.368 33.0067V35.0524C164.866 34.9971 165.363 34.9971 165.861 34.9971H166.027C174.209 35.0524 180.789 41.7422 180.733 50.0353V67.0086C180.733 70.3259 183.995 72.6479 187.147 71.5975L196.103 68.4461C199.42 67.2851 201.687 64.1337 201.687 60.5952V33.3385C201.743 25.4876 195.384 19.1295 187.534 19.1295Z" fill="#5D526D"/>
<path d="M200.969 93.7678V100.015C200.969 104.881 197.043 108.806 192.178 108.806H165.861C163.484 108.806 161.604 110.741 161.604 113.063C161.604 115.385 163.539 117.32 165.861 117.32H192.178C201.743 117.32 209.538 109.525 209.538 99.96V84.2583C209.538 89.2342 205.779 93.3255 200.969 93.7678Z" fill="#E9E8EA"/>
<path d="M176.31 119.808H165.585C161.493 119.808 158.176 116.491 158.176 112.4C158.176 108.308 161.493 104.991 165.585 104.991H176.31C180.402 104.991 183.719 108.308 183.719 112.4C183.719 116.491 180.402 119.808 176.31 119.808Z" fill="#E44A25"/>
</svg>
